<svg width="36" height="36" viewBox="0 0 36 36" fill="none" xmlns="http://www.w3.org/2000/svg">
<g clip-path="url(#clip0_7523_443)">
<path d="M24.48 0H0V24.6L11.4 36H36V11.52L24.48 0Z" fill="white"/>
<path d="M24.1795 0.750261L35.2497 11.8205V35.2497H11.6995L0.750261 24.2995V0.750261H24.1795ZM24.48 0H0V24.6L11.4 36H36V11.52L24.48 0Z" fill="#FF9900"/>
<path d="M5.84987 20.2765V21.5965H5.09961V17.9965H6.47909C6.80883 17.9673 7.1083 18.0873 7.37857 18.296C7.82831 18.776 7.82831 19.496 7.37857 19.976C7.13961 20.1868 6.80778 20.3058 6.47909 20.2755H5.84987V20.2765ZM5.84987 19.7058H6.39039C6.54065 19.7058 6.68987 19.6765 6.77961 19.5555C6.95909 19.3165 6.95909 18.9555 6.77961 18.7165C6.65961 18.6258 6.54065 18.5663 6.39039 18.5663H5.84987V19.7047V19.7058ZM10.8596 21.5965L10.6207 20.7878H9.39144L9.15039 21.5965H8.3417L9.60117 17.9965H10.4714L11.7007 21.5965H10.8596ZM9.54065 20.2171H10.4401L9.99039 18.7165L9.54065 20.2171ZM12.7796 21.5965V17.9965H14.1591C14.4909 17.9673 14.7904 18.0873 15.0586 18.296C15.2693 18.5047 15.3904 18.8052 15.3904 19.1047C15.3904 19.3155 15.3288 19.496 15.2088 19.6755C15.0909 19.855 14.9093 19.975 14.7288 20.0668L15.6283 21.6258H14.8196L14.0401 20.2171H13.5288V21.5965H12.7786H12.7796ZM13.5299 19.6463H14.0704C14.3407 19.6755 14.5796 19.496 14.6088 19.2258V19.0755C14.6401 18.8052 14.4586 18.5663 14.2196 18.5371H13.558V19.6463H13.5288H13.5299ZM17.4596 21.5965V18.6258H16.3504V17.9965H19.3212V18.6258H18.2099V21.5965H17.4596ZM21.2088 19.1058V21.5965H20.5201V17.9965H21.3591L22.8293 20.5165V17.9965H23.5201V21.5965H22.6791L21.2088 19.1058ZM24.8996 21.5965V17.9965H27.2704V18.5965H25.6791V19.4376H26.9699V20.0376H25.6791V20.9965H27.2704V21.5965H24.8996ZM28.6499 21.5965V17.9965H30.0293C30.3591 17.9673 30.6586 18.0873 30.9288 18.296C31.1396 18.5047 31.2586 18.8052 31.2586 19.1047C31.2586 19.3155 31.1991 19.496 31.0791 19.6755C30.9591 19.855 30.7796 19.975 30.5991 20.0668L31.4986 21.6258H30.6899L29.9083 20.2171H29.3991V21.5965H28.6488H28.6499ZM29.4001 19.6463H29.9407C30.2088 19.6755 30.4499 19.496 30.4791 19.2258V19.0755C30.5083 18.8052 30.3288 18.5663 30.0899 18.5371H29.3991V19.6463H29.4001Z" fill="#242E3D"/>
<path d="M8.00966 8.25067C8.00966 8.37067 8.00966 8.49172 8.07122 8.60963C8.10044 8.70041 8.15992 8.82041 8.19122 8.90911C8.22044 8.94041 8.22044 8.97067 8.22044 8.99989C8.22044 9.05937 8.19122 9.09067 8.12966 9.11989L7.8594 9.29937H7.7707C7.70914 9.29937 7.67992 9.27015 7.6507 9.23989C7.59122 9.17832 7.5307 9.11989 7.50044 9.05832C7.47122 8.99885 7.40966 8.90806 7.38044 8.81937C7.08096 9.17832 6.66044 9.39015 6.18044 9.39015C5.88096 9.41937 5.58044 9.29937 5.37174 9.09067C5.16096 8.87989 5.07227 8.60859 5.07227 8.30911C5.07227 7.97937 5.19227 7.67989 5.43122 7.47015C5.70148 7.25937 6.06044 7.14041 6.42253 7.14041C6.57279 7.14041 6.722 7.14041 6.84305 7.16963L7.29279 7.25833V6.95885C7.322 6.71989 7.26148 6.47885 7.11122 6.29937C6.93174 6.14911 6.69279 6.09067 6.45174 6.11989C6.30148 6.11989 6.15227 6.14911 6.002 6.17937C5.85174 6.20963 5.70253 6.27015 5.55227 6.32963C5.49279 6.35885 5.46148 6.35885 5.402 6.39119H5.34253C5.28096 6.39119 5.25174 6.35989 5.25174 6.27119V6.06041C5.25174 6.00093 5.25174 5.97172 5.28096 5.91015C5.31018 5.88093 5.34253 5.85067 5.40096 5.82146C5.55122 5.73067 5.7307 5.67119 5.91018 5.64198C6.12096 5.58041 6.3307 5.55119 6.54148 5.55119C6.9307 5.52198 7.29174 5.64198 7.59122 5.88093C7.83018 6.15119 7.95018 6.51015 7.92096 6.87224L8.00966 8.25172V8.25067ZM6.35992 8.85067C6.51018 8.85067 6.63018 8.82146 6.78044 8.79119C6.9307 8.72963 7.0507 8.64093 7.17174 8.52093C7.23122 8.45937 7.29174 8.37067 7.32201 8.25067C7.35227 8.13067 7.35122 8.00963 7.35122 7.89172V7.71015C7.23122 7.68093 7.11018 7.65067 6.99227 7.65067C6.87227 7.62146 6.75122 7.62146 6.60096 7.62146C6.39227 7.59224 6.18044 7.65067 6.00096 7.77172C5.75992 8.01067 5.7307 8.40093 5.94148 8.67119C6.0594 8.82145 6.20966 8.87989 6.35992 8.85067ZM9.63018 9.30041C9.5707 9.30041 9.51018 9.30041 9.47992 9.27119C9.4507 9.24198 9.42044 9.18041 9.39122 9.12093L8.43018 5.97067C8.40096 5.90911 8.40096 5.85067 8.40096 5.82041C8.40096 5.75885 8.43018 5.72963 8.46044 5.72963H8.88096C8.94253 5.72963 9.00096 5.72963 9.03122 5.75885C9.06044 5.79015 9.09279 5.84963 9.12201 5.90911L9.8107 8.57937L10.442 5.90911C10.442 5.84963 10.4712 5.79119 10.5307 5.75885C10.5923 5.72963 10.6507 5.72963 10.681 5.72963H11.0107C11.0723 5.72963 11.1307 5.72963 11.161 5.75885C11.1923 5.79015 11.2225 5.84963 11.2517 5.90911L11.881 8.64093L12.5717 5.90911C12.5717 5.84963 12.601 5.79119 12.6604 5.75885C12.722 5.72963 12.7512 5.72963 12.8107 5.72963H13.202C13.2615 5.72963 13.2928 5.75885 13.2928 5.79119V5.87989C13.2928 5.90911 13.2615 5.94146 13.2615 5.97067L12.3025 9.09067C12.3025 9.15015 12.2733 9.20859 12.2117 9.24093C12.1825 9.30041 12.123 9.30041 12.0615 9.30041H11.7025C11.643 9.30041 11.5825 9.30041 11.5523 9.27119C11.523 9.20963 11.4928 9.18041 11.4615 9.12093L10.8323 6.51015L10.203 9.12093C10.203 9.18041 10.1738 9.24093 10.1123 9.27119C10.083 9.30041 10.0236 9.30041 9.99435 9.30041H9.63331H9.63018ZM14.8507 9.42145C14.642 9.42145 14.4302 9.39224 14.2215 9.35989C14.0712 9.33067 13.8917 9.27119 13.7415 9.20963C13.6507 9.18041 13.5912 9.09172 13.5912 8.97067V8.75989C13.5912 8.67119 13.6204 8.64198 13.6799 8.64198H13.7415C13.7707 8.64198 13.801 8.67119 13.8302 8.67119C13.9804 8.73067 14.1297 8.79119 14.2799 8.82146C14.4302 8.85067 14.6097 8.88093 14.7599 8.88093C14.9707 8.88093 15.1804 8.85172 15.3599 8.73067C15.4799 8.64198 15.5707 8.49172 15.5707 8.34146C15.5707 8.22146 15.5415 8.13067 15.4507 8.07119C15.3307 7.98041 15.1804 7.89172 15.0302 7.86041L14.4302 7.68093C14.1912 7.62146 13.9502 7.47224 13.7707 7.26041C13.6507 7.08093 13.5599 6.87119 13.5599 6.66041C13.5599 6.51015 13.5912 6.36093 13.6799 6.21067C13.7415 6.09276 13.8594 5.97172 13.9794 5.88093C14.0994 5.79224 14.2497 5.70146 14.3999 5.67224C14.5794 5.61067 14.7297 5.61067 14.9091 5.61067C14.9999 5.61067 15.0907 5.61067 15.1794 5.64198C15.2702 5.64198 15.3589 5.67119 15.4497 5.70146C15.5404 5.73172 15.5999 5.73067 15.6907 5.76093C15.7502 5.79224 15.8086 5.79224 15.8702 5.8225C15.9297 5.85172 15.9589 5.88198 15.9902 5.91119C16.0194 5.9425 16.0194 6.00198 16.0194 6.06146V6.24302C16.0194 6.33172 15.9902 6.36093 15.9286 6.36093C15.867 6.36093 15.8086 6.33172 15.7784 6.30146C15.5394 6.18146 15.2691 6.15119 14.9989 6.15119C14.8194 6.15119 14.6399 6.18041 14.4584 6.27119C14.3404 6.33067 14.2497 6.47989 14.2789 6.63015C14.2789 6.75015 14.3081 6.84093 14.3989 6.92963C14.5189 7.04963 14.6691 7.10911 14.8486 7.14041L15.4194 7.31989C15.6584 7.37937 15.8691 7.52859 16.0486 7.70911C16.1686 7.85937 16.2281 8.07015 16.2281 8.27989C16.2281 8.43015 16.1989 8.60963 16.1081 8.75989C16.0486 8.91015 15.9286 9.03015 15.8086 9.12093C15.6907 9.20963 15.5091 9.30041 15.3589 9.35989C15.241 9.39119 15.0291 9.42145 14.8497 9.42145H14.8507Z" fill="#242E3D"/>
<path d="M15.6007 11.3724C14.2505 12.3616 12.3305 12.8718 10.6505 12.8718C8.42993 12.8718 6.27098 12.061 4.62124 10.5605C4.50124 10.4426 4.62124 10.2924 4.7715 10.381C6.60072 11.461 8.70124 12.0016 10.8007 12.0016C12.392 12.0016 13.951 11.6718 15.4212 11.0718C15.6299 10.981 15.8418 11.2221 15.6007 11.3713V11.3724ZM15.8094 12.2718C15.7499 12.3918 15.871 12.4513 15.991 12.3605C16.7089 11.7605 16.8905 10.501 16.7412 10.3216C16.591 10.1421 15.3305 9.99183 14.5802 10.5303C14.4602 10.621 14.4915 10.741 14.6094 10.7097C15.0299 10.6503 15.991 10.5303 16.1705 10.7713C16.3499 11.0103 15.9597 11.8805 15.8094 12.2708V12.2718Z" fill="#FF9900"/>
<path d="M13.4968 24.901L13.3236 24.3803H12.5263L12.3583 24.901H11.9785L12.733 22.8203H13.1316L13.886 24.901H13.4968ZM12.6109 24.1142H13.239L12.925 23.1532L12.6109 24.1142Z" fill="#242E3D"/>
<path d="M15.1886 24.9013L15.151 24.7562C15.0133 24.8762 14.8557 24.9346 14.6773 24.9346C14.4874 24.9346 14.3319 24.8647 14.2181 24.7239C14.1023 24.5819 14.0449 24.3858 14.0449 24.1426C14.0449 23.983 14.07 23.8432 14.1253 23.7211C14.1785 23.599 14.2536 23.504 14.3496 23.4352C14.4446 23.3663 14.5625 23.3319 14.6961 23.3319C14.8567 23.3319 15.006 23.383 15.1364 23.4863V22.6797H15.4881V24.9013H15.1886ZM14.79 24.6581C14.9089 24.6581 15.0247 24.6185 15.1364 24.5413V23.7159C15.0331 23.6439 14.9194 23.6084 14.7941 23.6084C14.6689 23.6084 14.5646 23.6533 14.4988 23.7399C14.4352 23.8244 14.4049 23.9538 14.4049 24.1291C14.4049 24.4818 14.5333 24.6592 14.7889 24.6592L14.79 24.6581Z" fill="#242E3D"/>
<path d="M16.3194 24.9027L15.7246 23.375H16.1044L16.4937 24.5844L16.8881 23.375H17.2491L16.6627 24.9027H16.3204H16.3194Z" fill="#242E3D"/>
<path d="M18.3757 24.8975L18.3475 24.7525C18.2745 24.812 18.1972 24.8589 18.1127 24.8933C18.0282 24.9278 17.9437 24.9445 17.8591 24.9445C17.7183 24.9445 17.6045 24.9027 17.5169 24.8182C17.4324 24.7337 17.3906 24.6241 17.3906 24.4895C17.3906 24.3424 17.4438 24.2255 17.5503 24.1379C17.6546 24.0471 17.8007 24.0022 17.9812 24.0022C18.0856 24.0022 18.2035 24.0179 18.3277 24.0492V23.8707C18.3277 23.7674 18.3058 23.6975 18.2619 23.66C18.2171 23.6213 18.1419 23.5994 18.0324 23.5994C17.8758 23.5994 17.6964 23.6318 17.4929 23.6975V23.4492C17.568 23.4116 17.6588 23.3824 17.7652 23.3605C17.8696 23.3396 17.9791 23.3281 18.0887 23.3281C18.2828 23.3281 18.4258 23.3688 18.5197 23.4502C18.6136 23.5285 18.6605 23.6516 18.6605 23.8206V24.8986H18.3746L18.3757 24.8975ZM17.9583 24.692C18.0178 24.692 18.0762 24.6815 18.1409 24.6544C18.2066 24.6293 18.2692 24.5928 18.3277 24.5469V24.261C18.2212 24.2401 18.1273 24.2286 18.047 24.2286C17.8383 24.2286 17.7329 24.308 17.7329 24.4676C17.7329 24.5406 17.7538 24.597 17.7934 24.6366C17.8331 24.6742 17.8894 24.693 17.9583 24.693V24.692Z" fill="#242E3D"/>
<path d="M20.0962 24.8965V23.8843C20.0962 23.7883 20.0763 23.7173 20.0356 23.6735C19.9949 23.6266 19.9292 23.6036 19.8436 23.6036C19.7122 23.6036 19.5775 23.6485 19.4409 23.7351V24.8975H19.084V23.3699H19.3793L19.4116 23.5389C19.6005 23.398 19.7977 23.3281 20.0022 23.3281C20.1494 23.3281 20.26 23.3688 20.3351 23.445C20.4102 23.5201 20.4478 23.6307 20.4478 23.7779V24.8986H20.0962V24.8965Z" fill="#242E3D"/>
<path d="M21.943 24.8354C21.8241 24.898 21.6842 24.9293 21.5215 24.9293C21.2867 24.9293 21.1061 24.8625 20.9778 24.7279C20.8526 24.5902 20.791 24.3982 20.791 24.1467C20.791 23.8952 20.8568 23.6918 20.9882 23.5519C21.1197 23.4079 21.3023 23.3359 21.5371 23.3359C21.679 23.3359 21.8136 23.3672 21.9357 23.4246V23.6782C21.8011 23.6385 21.6874 23.6177 21.5935 23.6177C21.4432 23.6177 21.3326 23.6584 21.2606 23.7398C21.1886 23.8212 21.1531 23.9495 21.1531 24.1196V24.1572C21.1531 24.3262 21.1896 24.4514 21.2606 24.5328C21.3326 24.6111 21.4432 24.6497 21.5935 24.6497C21.6978 24.6497 21.8168 24.6288 21.9451 24.5892V24.8375L21.943 24.8354Z" fill="#242E3D"/>
<path d="M22.5112 24.2182C22.5175 24.3716 22.5592 24.4843 22.6386 24.5563C22.7199 24.6252 22.842 24.6596 23.0038 24.6596C23.154 24.6596 23.3147 24.6346 23.4869 24.5803V24.8286C23.418 24.8631 23.3366 24.8923 23.2427 24.9132C23.1488 24.9351 23.0528 24.9455 22.9526 24.9455C22.7022 24.9455 22.5123 24.8787 22.3808 24.7441C22.2493 24.6074 22.1836 24.4071 22.1836 24.1441C22.1836 23.8812 22.2462 23.6881 22.3756 23.5441C22.5039 23.4001 22.6813 23.3281 22.9099 23.3281C23.1039 23.3281 23.2542 23.3813 23.3596 23.4878C23.4639 23.5942 23.5192 23.7455 23.5192 23.9417C23.5192 24.045 23.5099 24.1368 23.4911 24.2182H22.5112ZM22.8911 23.5859C22.7846 23.5859 22.6959 23.6213 22.6281 23.6933C22.5592 23.7653 22.5206 23.8624 22.5112 23.9845H23.2052V23.9605C23.2052 23.8384 23.178 23.7466 23.1248 23.684C23.0706 23.6182 22.9933 23.5859 22.8911 23.5859Z" fill="#242E3D"/>
<path d="M24.9269 24.9013L24.8893 24.7562C24.7516 24.8762 24.594 24.9346 24.4156 24.9346C24.2246 24.9346 24.0702 24.8647 23.9564 24.7239C23.8406 24.5819 23.7832 24.3858 23.7832 24.1426C23.7832 23.983 23.8082 23.8432 23.8625 23.7211C23.9157 23.599 23.9909 23.504 24.0879 23.4352C24.1829 23.3663 24.3008 23.3319 24.4343 23.3319C24.595 23.3319 24.7432 23.383 24.8747 23.4863V22.6797H25.2263V24.9013H24.9269ZM24.5282 24.6581C24.6472 24.6581 24.763 24.6185 24.8757 24.5413V23.7159C24.7724 23.6439 24.6587 23.6084 24.5335 23.6084C24.4082 23.6084 24.3039 23.6533 24.2382 23.7399C24.1745 23.8244 24.1442 23.9538 24.1442 24.1291C24.1442 24.4818 24.2726 24.6592 24.5282 24.6592V24.6581Z" fill="#242E3D"/>
<path d="M26.9246 24.901V23.1198H26.2734V22.8203H27.942V23.1198H27.2908V24.901H26.9256H26.9246Z" fill="#242E3D"/>
<path d="M28.2104 24.8991V23.3715H28.562V24.8991H28.2104ZM28.3846 23.1189C28.3189 23.1189 28.2677 23.1022 28.2302 23.0678C28.1926 23.0302 28.1738 22.9802 28.1738 22.9175C28.1738 22.8518 28.1926 22.8017 28.2302 22.7673C28.2677 22.7297 28.3189 22.7109 28.3846 22.7109C28.4503 22.7109 28.5067 22.7297 28.5443 22.7673C28.5818 22.8017 28.6006 22.8518 28.6006 22.9175C28.6006 22.9833 28.5818 23.0302 28.5443 23.0678C28.5067 23.1022 28.4524 23.1189 28.3846 23.1189Z" fill="#242E3D"/>
<path d="M29.2564 24.2182C29.2627 24.3716 29.3044 24.4843 29.3827 24.5563C29.4641 24.6252 29.5862 24.6596 29.7479 24.6596C29.8982 24.6596 30.0589 24.6346 30.231 24.5803V24.8286C30.1622 24.8631 30.0808 24.8923 29.9879 24.9132C29.894 24.9351 29.797 24.9455 29.6968 24.9455C29.4463 24.9455 29.2564 24.8787 29.125 24.7441C28.9935 24.6074 28.9277 24.4071 28.9277 24.1441C28.9277 23.8812 28.9903 23.6881 29.1197 23.5441C29.2481 23.4001 29.4255 23.3281 29.654 23.3281C29.8481 23.3281 29.9973 23.3813 30.1037 23.4878C30.2081 23.5942 30.2634 23.7455 30.2634 23.9417C30.2634 24.045 30.254 24.1368 30.2352 24.2182H29.2554H29.2564ZM29.6363 23.5859C29.5298 23.5859 29.4411 23.6213 29.3743 23.6933C29.3055 23.7653 29.2658 23.8624 29.2575 23.9845H29.9514V23.9605C29.9514 23.8384 29.9253 23.7466 29.8721 23.684C29.8168 23.6182 29.7406 23.5859 29.6373 23.5859H29.6363Z" fill="#242E3D"/>
<path d="M30.6055 24.9042V23.3766H30.9008L30.9477 23.6061C31.0291 23.5185 31.1043 23.459 31.1731 23.4235C31.242 23.386 31.3182 23.3672 31.4027 23.3672C31.4403 23.3672 31.4789 23.3703 31.5248 23.3766V23.7001C31.4684 23.6907 31.411 23.6865 31.3516 23.6865C31.2044 23.6865 31.075 23.7241 30.9623 23.7992V24.9053H30.6065L30.6055 24.9042Z" fill="#242E3D"/>
<path d="M21.2273 26.9453C21.0593 26.8795 20.9351 26.8034 20.8568 26.7157C20.7817 26.6249 20.7441 26.5143 20.7441 26.3828C20.7441 26.195 20.8099 26.0468 20.9414 25.9373C21.0728 25.8277 21.2471 25.7734 21.4714 25.7734C21.6561 25.7734 21.8429 25.8089 22.0339 25.8809V26.172C21.8387 26.1126 21.6603 26.0834 21.4996 26.0834C21.2335 26.0834 21.101 26.172 21.101 26.3505C21.101 26.4194 21.125 26.4757 21.1709 26.5195C21.2189 26.5634 21.3066 26.6072 21.4287 26.651L21.6864 26.7449C21.8523 26.8075 21.9723 26.8827 22.0474 26.9703C22.1226 27.058 22.1601 27.1707 22.1601 27.3084C22.1601 27.5087 22.0881 27.6674 21.9441 27.7811C21.8033 27.8969 21.6102 27.9543 21.3629 27.9543C21.2565 27.9543 21.1501 27.9418 21.0436 27.922C20.9372 27.9 20.8433 27.8708 20.7671 27.8333V27.5432C20.8621 27.5745 20.9654 27.5995 21.0718 27.6183C21.1814 27.6371 21.2774 27.6465 21.3619 27.6465C21.5028 27.6465 21.6102 27.6214 21.6854 27.5713C21.7615 27.5181 21.8022 27.4451 21.8022 27.3512C21.8022 27.2844 21.7782 27.228 21.7323 27.1821C21.6874 27.1383 21.6092 27.0966 21.4934 27.0507L21.2262 26.9474L21.2273 26.9453Z" fill="#242E3D"/>
<path d="M22.774 27.2182C22.7803 27.3716 22.822 27.4843 22.9003 27.5563C22.9817 27.6252 23.1037 27.6596 23.2655 27.6596C23.4157 27.6596 23.5764 27.6346 23.7486 27.5803V27.8286C23.6797 27.8631 23.5984 27.8923 23.5055 27.9132C23.4116 27.9351 23.3145 27.9455 23.2144 27.9455C22.9639 27.9455 22.774 27.8787 22.6425 27.7441C22.5111 27.6074 22.4453 27.4071 22.4453 27.1441C22.4453 26.8812 22.5079 26.6881 22.6373 26.5441C22.7657 26.4001 22.9431 26.3281 23.1716 26.3281C23.3657 26.3281 23.5149 26.3813 23.6213 26.4878C23.7257 26.5942 23.781 26.7455 23.781 26.9417C23.781 27.045 23.7716 27.1368 23.7528 27.2182H22.773H22.774ZM23.1538 26.5859C23.0474 26.5859 22.9587 26.6213 22.8909 26.6933C22.822 26.7653 22.7834 26.8624 22.774 26.9845H23.4679V26.9605C23.4679 26.8384 23.4408 26.7466 23.3886 26.684C23.3333 26.6182 23.2571 26.5859 23.1538 26.5859Z" fill="#242E3D"/>
<path d="M24.126 27.8964V26.3688H24.4213L24.4683 26.5983C24.5497 26.5107 24.6238 26.4512 24.6927 26.4157C24.7615 26.3782 24.8387 26.3594 24.9222 26.3594C24.9598 26.3594 24.9984 26.3625 25.0443 26.3688V26.6922C24.988 26.6829 24.9306 26.6787 24.8711 26.6787C24.724 26.6787 24.5946 26.7162 24.4819 26.7914V27.8975H24.125L24.126 27.8964Z" fill="#242E3D"/>
<path d="M25.6827 27.9027L25.0879 26.375H25.4677L25.8569 27.5844L26.2503 26.375H26.6114L26.0249 27.9027H25.6827Z" fill="#242E3D"/>
<path d="M26.8618 27.8991V26.3715H27.2134V27.8991H26.8618ZM27.035 26.1189C26.9693 26.1189 26.9181 26.1022 26.8806 26.0678C26.843 26.0302 26.8242 25.9802 26.8242 25.9175C26.8242 25.8518 26.843 25.8017 26.8806 25.7673C26.9181 25.7297 26.9693 25.7109 27.035 25.7109C27.1007 25.7109 27.1571 25.7297 27.1947 25.7673C27.2322 25.8017 27.251 25.8518 27.251 25.9175C27.251 25.9833 27.2322 26.0302 27.1947 26.0678C27.1571 26.1022 27.1028 26.1189 27.035 26.1189Z" fill="#242E3D"/>
<path d="M28.7312 27.8432C28.6122 27.9058 28.4724 27.9371 28.3096 27.9371C28.0759 27.9371 27.8943 27.8704 27.7659 27.7358C27.6407 27.598 27.5781 27.406 27.5781 27.1545C27.5781 26.9031 27.6439 26.6996 27.7753 26.5598C27.9068 26.4158 28.0894 26.3438 28.3242 26.3438C28.4661 26.3438 28.6007 26.3751 28.7228 26.4324V26.686C28.5882 26.6464 28.4745 26.6255 28.3806 26.6255C28.2303 26.6255 28.1197 26.6662 28.0477 26.7476C27.9757 26.829 27.9402 26.9573 27.9402 27.1274V27.165C27.9402 27.334 27.9757 27.4592 28.0477 27.5406C28.1197 27.6189 28.2303 27.6575 28.3806 27.6575C28.4849 27.6575 28.6039 27.6366 28.7322 27.597V27.8453L28.7312 27.8432Z" fill="#242E3D"/>
<path d="M29.2964 27.2182C29.3027 27.3716 29.3444 27.4843 29.4237 27.5563C29.5051 27.6252 29.6261 27.6596 29.7889 27.6596C29.9392 27.6596 30.0999 27.6346 30.2721 27.5803V27.8286C30.2032 27.8631 30.1218 27.8923 30.0279 27.9132C29.934 27.9351 29.838 27.9455 29.7378 27.9455C29.4874 27.9455 29.2974 27.8787 29.166 27.7441C29.0345 27.6074 28.9688 27.4071 28.9688 27.1441C28.9688 26.8812 29.0314 26.6881 29.1607 26.5441C29.2891 26.4001 29.4675 26.3281 29.695 26.3281C29.8891 26.3281 30.0394 26.3813 30.1448 26.4878C30.2491 26.5942 30.3044 26.7455 30.3044 26.9417C30.3044 27.045 30.295 27.1368 30.2762 27.2182H29.2964ZM29.6762 26.5859C29.5698 26.5859 29.4811 26.6213 29.4143 26.6933C29.3454 26.7653 29.3068 26.8624 29.2974 26.9845H29.9914V26.9605C29.9914 26.8384 29.9642 26.7466 29.911 26.684C29.8567 26.6182 29.7795 26.5859 29.6762 26.5859Z" fill="#242E3D"/>
<path d="M31.3382 27.4853C31.3382 27.4415 31.3247 27.406 31.2955 27.3779C31.2673 27.3497 31.2161 27.3215 31.141 27.2933L30.8927 27.1994C30.6683 27.1118 30.5556 26.972 30.5556 26.7779C30.5556 26.637 30.6068 26.5274 30.7101 26.4502C30.8165 26.3688 30.9553 26.3281 31.1274 26.3281C31.2996 26.3281 31.4468 26.3594 31.5772 26.422V26.6704C31.4248 26.6224 31.2819 26.5953 31.1504 26.5953C31.0596 26.5953 30.9928 26.6088 30.949 26.638C30.9041 26.6662 30.8833 26.708 30.8833 26.7643C30.8833 26.8092 30.8989 26.8436 30.9302 26.8718C30.9595 26.8968 31.0158 26.926 31.0941 26.9605L31.3288 27.0492C31.4478 27.0961 31.5323 27.1525 31.5866 27.2182C31.6398 27.2808 31.6659 27.3622 31.6659 27.4572C31.6659 27.6074 31.6106 27.7274 31.5021 27.814C31.3956 27.9017 31.2454 27.9455 31.0523 27.9455C30.9584 27.9455 30.8666 27.9351 30.7758 27.9132C30.6881 27.8944 30.6099 27.8662 30.541 27.8286V27.5803C30.7309 27.6439 30.9021 27.6742 31.0523 27.6742C31.1525 27.6742 31.2224 27.6586 31.2683 27.6273C31.3153 27.598 31.3382 27.5511 31.3382 27.4864V27.4853Z" fill="#242E3D"/>
</g>
<defs>
<clipPath id="clip0_7523_443">
<rect width="36" height="36" fill="white"/>
</clipPath>
</defs>
</svg>
