<svg width="24" height="24" viewBox="0 0 24 24" fill="none" xmlns="http://www.w3.org/2000/svg">
<path d="M12 24C10.3356 24 8.77384 23.6854 7.3148 23.0563C5.85576 22.4271 4.58645 21.5727 3.50687 20.4932C2.4273 19.4136 1.57293 18.1443 0.943756 16.6852C0.314585 15.2262 0 13.6644 0 12C0 10.3356 0.314585 8.77385 0.943756 7.31481C1.57293 5.85576 2.4273 4.58645 3.50687 3.50688C4.58645 2.4273 5.85576 1.57293 7.3148 0.943756C8.77384 0.314585 10.3356 0 12 0C12.894 0 13.7694 0.0972633 14.6261 0.291789C15.4828 0.486315 16.3087 0.770646 17.1039 1.14478C17.4354 1.30159 17.6523 1.5579 17.7545 1.91371C17.8568 2.26954 17.8006 2.60341 17.5858 2.91533C17.371 3.23194 17.0785 3.43881 16.7082 3.53596C16.3379 3.63312 15.9725 3.6033 15.612 3.44648C15.041 3.19933 14.4502 3.00907 13.8396 2.8757C13.2289 2.74233 12.6157 2.67564 12 2.67564C9.41644 2.67564 7.21649 3.58264 5.40015 5.39663C3.58381 7.21064 2.67564 9.41176 2.67564 12C2.67564 14.5883 3.58381 16.7894 5.40015 18.6034C7.21649 20.4174 9.41644 21.3244 12 21.3244C14.5789 21.3244 16.7777 20.4186 18.5964 18.6069C20.415 16.7953 21.3244 14.6023 21.3244 12.0282C21.3244 11.9088 21.3206 11.7932 21.3132 11.6814C21.3057 11.5695 21.2946 11.454 21.2796 11.3346C21.2498 10.9498 21.3323 10.5903 21.527 10.256C21.7217 9.92171 22.0068 9.70087 22.3822 9.59349C22.7427 9.4908 23.0766 9.53192 23.3838 9.71686C23.6911 9.9018 23.8643 10.1745 23.9035 10.535C23.938 10.7766 23.9627 11.0171 23.9776 11.2563C23.9925 11.4956 24 11.7435 24 12C24 13.6644 23.6854 15.2262 23.0562 16.6852C22.4271 18.1443 21.5727 19.4136 20.4931 20.4932C19.4136 21.5727 18.1442 22.4271 16.6852 23.0563C15.2262 23.6854 13.6644 24 12 24ZM10.3324 13.8709L21.2349 2.93897C21.4786 2.69523 21.7821 2.56963 22.1454 2.56218C22.5087 2.55471 22.8196 2.68031 23.0783 2.93897C23.322 3.18272 23.4439 3.48995 23.4439 3.86068C23.4439 4.2314 23.322 4.53864 23.0783 4.78238L11.2752 16.6079C11.0071 16.8759 10.6929 17.0099 10.3324 17.0099C9.97188 17.0099 9.65761 16.8759 9.38957 16.6079L6.14317 13.3615C5.89945 13.1177 5.77759 12.8117 5.77759 12.4433C5.77759 12.0749 5.89945 11.7689 6.14317 11.5251C6.38692 11.2814 6.69416 11.1595 7.06488 11.1595C7.4356 11.1595 7.74284 11.2814 7.98658 11.5251L10.3324 13.8709Z" fill="white"/>
</svg>
