<svg width="690" height="684" viewBox="0 0 690 684" fill="none" xmlns="http://www.w3.org/2000/svg">
<g opacity="0.6">
<path d="M233.709 228.011C290.928 229.502 347.638 252.435 390.756 296.645C433.873 340.855 455.379 398.121 455.438 455.36C398.22 453.868 341.509 430.936 298.392 386.726C255.274 342.516 233.768 285.249 233.709 228.011Z" fill="#821E34"/>
<path fill-rule="evenodd" clip-rule="evenodd" d="M302.447 64.7084C256.621 109.401 233.648 168.691 233.709 228.011C290.928 229.502 347.638 252.435 390.756 296.645C433.873 340.855 455.379 398.121 455.438 455.36C514.738 456.905 574.584 435.422 620.41 390.729C710.452 302.912 712.268 158.74 624.465 68.7121C536.662 -21.3161 392.489 -23.1086 302.447 64.7084Z" fill="#A22943"/>
<path d="M64.6826 614.658C-23.1205 524.63 -21.3049 380.458 68.7377 292.641C114.563 247.948 174.409 226.465 233.709 228.011C233.768 285.249 255.274 342.516 298.392 386.726C341.509 430.936 398.22 453.868 455.438 455.36C455.5 514.68 432.526 573.969 386.701 618.662C296.658 706.479 152.486 704.687 64.6826 614.658Z" fill="#A22943"/>
</g>
</svg>
